<mxfile host="Electron" modified="2023-10-01T16:28:12.809Z" agent="Mozilla/5.0 (Macintosh; Intel Mac OS X 10_15_7) AppleWebKit/537.36 (KHTML, like Gecko) draw.io/22.0.0 Chrome/114.0.5735.289 Electron/25.8.3 Safari/537.36" etag="iGHoGSG3DBFh3FDw-oI6" version="22.0.0" type="device">
  <diagram name="Página-1" id="4AbyD_8r4Y_VM6RAkzZK">
    <mxGraphModel dx="699" dy="674" grid="1" gridSize="10" guides="1" tooltips="1" connect="1" arrows="1" fold="1" page="1" pageScale="1" pageWidth="827" pageHeight="1169" math="0" shadow="0">
      <root>
        <mxCell id="0" />
        <mxCell id="1" parent="0" />
        <mxCell id="9qNWWsAKLF11rJkQg2GO-46" value="Lista de VARIABLES DE INSTANCIA" style="shape=table;startSize=30;container=1;collapsible=0;childLayout=tableLayout;strokeColor=default;fontSize=16;labelBackgroundColor=none;" parent="1" vertex="1">
          <mxGeometry x="80" y="300" width="414" height="190" as="geometry" />
        </mxCell>
        <mxCell id="9qNWWsAKLF11rJkQg2GO-47" value="" style="shape=tableRow;horizontal=0;startSize=0;swimlaneHead=0;swimlaneBody=0;strokeColor=inherit;top=0;left=0;bottom=0;right=0;collapsible=0;dropTarget=0;fillColor=none;points=[[0,0.5],[1,0.5]];portConstraint=eastwest;fontSize=16;" parent="9qNWWsAKLF11rJkQg2GO-46" vertex="1">
          <mxGeometry y="30" width="414" height="40" as="geometry" />
        </mxCell>
        <mxCell id="9qNWWsAKLF11rJkQg2GO-48" value="variable/s" style="shape=partialRectangle;html=1;whiteSpace=wrap;connectable=0;strokeColor=inherit;overflow=hidden;fillColor=none;top=0;left=0;bottom=0;right=0;pointerEvents=1;fontSize=16;labelBackgroundColor=default;" parent="9qNWWsAKLF11rJkQg2GO-47" vertex="1">
          <mxGeometry width="140" height="40" as="geometry">
            <mxRectangle width="140" height="40" as="alternateBounds" />
          </mxGeometry>
        </mxCell>
        <mxCell id="9qNWWsAKLF11rJkQg2GO-113" value="tipo" style="shape=partialRectangle;html=1;whiteSpace=wrap;connectable=0;strokeColor=inherit;overflow=hidden;fillColor=none;top=0;left=0;bottom=0;right=0;pointerEvents=1;fontSize=16;labelBackgroundColor=default;" parent="9qNWWsAKLF11rJkQg2GO-47" vertex="1">
          <mxGeometry x="140" width="135" height="40" as="geometry">
            <mxRectangle width="135" height="40" as="alternateBounds" />
          </mxGeometry>
        </mxCell>
        <mxCell id="9qNWWsAKLF11rJkQg2GO-50" value="valor/referencia" style="shape=partialRectangle;html=1;whiteSpace=wrap;connectable=0;strokeColor=inherit;overflow=hidden;fillColor=none;top=0;left=0;bottom=0;right=0;pointerEvents=1;fontSize=16;labelBackgroundColor=default;" parent="9qNWWsAKLF11rJkQg2GO-47" vertex="1">
          <mxGeometry x="275" width="139" height="40" as="geometry">
            <mxRectangle width="139" height="40" as="alternateBounds" />
          </mxGeometry>
        </mxCell>
        <mxCell id="9qNWWsAKLF11rJkQg2GO-51" value="" style="shape=tableRow;horizontal=0;startSize=0;swimlaneHead=0;swimlaneBody=0;strokeColor=inherit;top=0;left=0;bottom=0;right=0;collapsible=0;dropTarget=0;fillColor=none;points=[[0,0.5],[1,0.5]];portConstraint=eastwest;fontSize=16;" parent="9qNWWsAKLF11rJkQg2GO-46" vertex="1">
          <mxGeometry y="70" width="414" height="40" as="geometry" />
        </mxCell>
        <mxCell id="9qNWWsAKLF11rJkQg2GO-52" value="var1, var2" style="shape=partialRectangle;html=1;whiteSpace=wrap;connectable=0;strokeColor=inherit;overflow=hidden;fillColor=none;top=0;left=0;bottom=0;right=0;pointerEvents=1;fontSize=16;fontColor=#3333FF;" parent="9qNWWsAKLF11rJkQg2GO-51" vertex="1">
          <mxGeometry width="140" height="40" as="geometry">
            <mxRectangle width="140" height="40" as="alternateBounds" />
          </mxGeometry>
        </mxCell>
        <mxCell id="9qNWWsAKLF11rJkQg2GO-114" value="ClaseX" style="shape=partialRectangle;html=1;whiteSpace=wrap;connectable=0;strokeColor=inherit;overflow=hidden;fillColor=none;top=0;left=0;bottom=0;right=0;pointerEvents=1;fontSize=16;fontColor=#3333FF;" parent="9qNWWsAKLF11rJkQg2GO-51" vertex="1">
          <mxGeometry x="140" width="135" height="40" as="geometry">
            <mxRectangle width="135" height="40" as="alternateBounds" />
          </mxGeometry>
        </mxCell>
        <mxCell id="9qNWWsAKLF11rJkQg2GO-54" value="referencia" style="shape=partialRectangle;html=1;whiteSpace=wrap;connectable=0;strokeColor=inherit;overflow=hidden;fillColor=none;top=0;left=0;bottom=0;right=0;pointerEvents=1;fontSize=16;fontColor=#3333FF;" parent="9qNWWsAKLF11rJkQg2GO-51" vertex="1">
          <mxGeometry x="275" width="139" height="40" as="geometry">
            <mxRectangle width="139" height="40" as="alternateBounds" />
          </mxGeometry>
        </mxCell>
        <mxCell id="9qNWWsAKLF11rJkQg2GO-59" value="" style="shape=tableRow;horizontal=0;startSize=0;swimlaneHead=0;swimlaneBody=0;strokeColor=inherit;top=0;left=0;bottom=0;right=0;collapsible=0;dropTarget=0;fillColor=none;points=[[0,0.5],[1,0.5]];portConstraint=eastwest;fontSize=16;" parent="9qNWWsAKLF11rJkQg2GO-46" vertex="1">
          <mxGeometry y="110" width="414" height="40" as="geometry" />
        </mxCell>
        <mxCell id="9qNWWsAKLF11rJkQg2GO-60" value="var3" style="shape=partialRectangle;html=1;whiteSpace=wrap;connectable=0;strokeColor=inherit;overflow=hidden;fillColor=none;top=0;left=0;bottom=0;right=0;pointerEvents=1;fontSize=16;fontColor=#3333FF;" parent="9qNWWsAKLF11rJkQg2GO-59" vertex="1">
          <mxGeometry width="140" height="40" as="geometry">
            <mxRectangle width="140" height="40" as="alternateBounds" />
          </mxGeometry>
        </mxCell>
        <mxCell id="9qNWWsAKLF11rJkQg2GO-116" value="boolean" style="shape=partialRectangle;html=1;whiteSpace=wrap;connectable=0;strokeColor=inherit;overflow=hidden;fillColor=none;top=0;left=0;bottom=0;right=0;pointerEvents=1;fontSize=16;fontColor=#3333FF;" parent="9qNWWsAKLF11rJkQg2GO-59" vertex="1">
          <mxGeometry x="140" width="135" height="40" as="geometry">
            <mxRectangle width="135" height="40" as="alternateBounds" />
          </mxGeometry>
        </mxCell>
        <mxCell id="9qNWWsAKLF11rJkQg2GO-62" value="valor" style="shape=partialRectangle;html=1;whiteSpace=wrap;connectable=0;strokeColor=inherit;overflow=hidden;fillColor=none;top=0;left=0;bottom=0;right=0;pointerEvents=1;fontSize=16;fontColor=#3333FF;" parent="9qNWWsAKLF11rJkQg2GO-59" vertex="1">
          <mxGeometry x="275" width="139" height="40" as="geometry">
            <mxRectangle width="139" height="40" as="alternateBounds" />
          </mxGeometry>
        </mxCell>
        <mxCell id="g_9uNZ-XEryuF7HmEskM-30" style="shape=tableRow;horizontal=0;startSize=0;swimlaneHead=0;swimlaneBody=0;strokeColor=inherit;top=0;left=0;bottom=0;right=0;collapsible=0;dropTarget=0;fillColor=none;points=[[0,0.5],[1,0.5]];portConstraint=eastwest;fontSize=16;" parent="9qNWWsAKLF11rJkQg2GO-46" vertex="1">
          <mxGeometry y="150" width="414" height="40" as="geometry" />
        </mxCell>
        <mxCell id="g_9uNZ-XEryuF7HmEskM-31" style="shape=partialRectangle;html=1;whiteSpace=wrap;connectable=0;strokeColor=inherit;overflow=hidden;fillColor=none;top=0;left=0;bottom=0;right=0;pointerEvents=1;fontSize=16;fontColor=#3333FF;" parent="g_9uNZ-XEryuF7HmEskM-30" vertex="1">
          <mxGeometry width="140" height="40" as="geometry">
            <mxRectangle width="140" height="40" as="alternateBounds" />
          </mxGeometry>
        </mxCell>
        <mxCell id="g_9uNZ-XEryuF7HmEskM-32" style="shape=partialRectangle;html=1;whiteSpace=wrap;connectable=0;strokeColor=inherit;overflow=hidden;fillColor=none;top=0;left=0;bottom=0;right=0;pointerEvents=1;fontSize=16;fontColor=#3333FF;" parent="g_9uNZ-XEryuF7HmEskM-30" vertex="1">
          <mxGeometry x="140" width="135" height="40" as="geometry">
            <mxRectangle width="135" height="40" as="alternateBounds" />
          </mxGeometry>
        </mxCell>
        <mxCell id="g_9uNZ-XEryuF7HmEskM-33" style="shape=partialRectangle;html=1;whiteSpace=wrap;connectable=0;strokeColor=inherit;overflow=hidden;fillColor=none;top=0;left=0;bottom=0;right=0;pointerEvents=1;fontSize=16;fontColor=#3333FF;" parent="g_9uNZ-XEryuF7HmEskM-30" vertex="1">
          <mxGeometry x="275" width="139" height="40" as="geometry">
            <mxRectangle width="139" height="40" as="alternateBounds" />
          </mxGeometry>
        </mxCell>
        <mxCell id="9qNWWsAKLF11rJkQg2GO-118" value="Lista de VARIABLES LOCALES" style="shape=table;startSize=30;container=1;collapsible=0;childLayout=tableLayout;strokeColor=default;fontSize=16;" parent="1" vertex="1">
          <mxGeometry x="75" y="550" width="520" height="190" as="geometry" />
        </mxCell>
        <mxCell id="9qNWWsAKLF11rJkQg2GO-119" value="" style="shape=tableRow;horizontal=0;startSize=0;swimlaneHead=0;swimlaneBody=0;strokeColor=inherit;top=0;left=0;bottom=0;right=0;collapsible=0;dropTarget=0;fillColor=none;points=[[0,0.5],[1,0.5]];portConstraint=eastwest;fontSize=16;" parent="9qNWWsAKLF11rJkQg2GO-118" vertex="1">
          <mxGeometry y="30" width="520" height="40" as="geometry" />
        </mxCell>
        <mxCell id="9qNWWsAKLF11rJkQg2GO-120" value="variable/s" style="shape=partialRectangle;html=1;whiteSpace=wrap;connectable=0;strokeColor=inherit;overflow=hidden;fillColor=none;top=0;left=0;bottom=0;right=0;pointerEvents=1;fontSize=16;" parent="9qNWWsAKLF11rJkQg2GO-119" vertex="1">
          <mxGeometry width="124" height="40" as="geometry">
            <mxRectangle width="124" height="40" as="alternateBounds" />
          </mxGeometry>
        </mxCell>
        <mxCell id="9qNWWsAKLF11rJkQg2GO-121" value="tipo" style="shape=partialRectangle;html=1;whiteSpace=wrap;connectable=0;strokeColor=inherit;overflow=hidden;fillColor=none;top=0;left=0;bottom=0;right=0;pointerEvents=1;fontSize=16;" parent="9qNWWsAKLF11rJkQg2GO-119" vertex="1">
          <mxGeometry x="124" width="151" height="40" as="geometry">
            <mxRectangle width="151" height="40" as="alternateBounds" />
          </mxGeometry>
        </mxCell>
        <mxCell id="9qNWWsAKLF11rJkQg2GO-122" value="Clase.metodo()" style="shape=partialRectangle;html=1;whiteSpace=wrap;connectable=0;strokeColor=inherit;overflow=hidden;fillColor=none;top=0;left=0;bottom=0;right=0;pointerEvents=1;fontSize=16;" parent="9qNWWsAKLF11rJkQg2GO-119" vertex="1">
          <mxGeometry x="275" width="245" height="40" as="geometry">
            <mxRectangle width="245" height="40" as="alternateBounds" />
          </mxGeometry>
        </mxCell>
        <mxCell id="9qNWWsAKLF11rJkQg2GO-124" value="" style="shape=tableRow;horizontal=0;startSize=0;swimlaneHead=0;swimlaneBody=0;strokeColor=inherit;top=0;left=0;bottom=0;right=0;collapsible=0;dropTarget=0;fillColor=none;points=[[0,0.5],[1,0.5]];portConstraint=eastwest;fontSize=16;" parent="9qNWWsAKLF11rJkQg2GO-118" vertex="1">
          <mxGeometry y="70" width="520" height="40" as="geometry" />
        </mxCell>
        <mxCell id="9qNWWsAKLF11rJkQg2GO-125" value="var1" style="shape=partialRectangle;html=1;whiteSpace=wrap;connectable=0;strokeColor=inherit;overflow=hidden;fillColor=none;top=0;left=0;bottom=0;right=0;pointerEvents=1;fontSize=16;fontColor=#3333FF;" parent="9qNWWsAKLF11rJkQg2GO-124" vertex="1">
          <mxGeometry width="124" height="40" as="geometry">
            <mxRectangle width="124" height="40" as="alternateBounds" />
          </mxGeometry>
        </mxCell>
        <mxCell id="9qNWWsAKLF11rJkQg2GO-126" value="tipoX" style="shape=partialRectangle;html=1;whiteSpace=wrap;connectable=0;strokeColor=inherit;overflow=hidden;fillColor=none;top=0;left=0;bottom=0;right=0;pointerEvents=1;fontSize=16;fontColor=#3333FF;" parent="9qNWWsAKLF11rJkQg2GO-124" vertex="1">
          <mxGeometry x="124" width="151" height="40" as="geometry">
            <mxRectangle width="151" height="40" as="alternateBounds" />
          </mxGeometry>
        </mxCell>
        <mxCell id="9qNWWsAKLF11rJkQg2GO-127" value="ClaseX.metodoY()" style="shape=partialRectangle;html=1;whiteSpace=wrap;connectable=0;strokeColor=inherit;overflow=hidden;fillColor=none;top=0;left=0;bottom=0;right=0;pointerEvents=1;fontSize=16;fontColor=#3333FF;" parent="9qNWWsAKLF11rJkQg2GO-124" vertex="1">
          <mxGeometry x="275" width="245" height="40" as="geometry">
            <mxRectangle width="245" height="40" as="alternateBounds" />
          </mxGeometry>
        </mxCell>
        <mxCell id="9qNWWsAKLF11rJkQg2GO-129" value="" style="shape=tableRow;horizontal=0;startSize=0;swimlaneHead=0;swimlaneBody=0;strokeColor=inherit;top=0;left=0;bottom=0;right=0;collapsible=0;dropTarget=0;fillColor=none;points=[[0,0.5],[1,0.5]];portConstraint=eastwest;fontSize=16;" parent="9qNWWsAKLF11rJkQg2GO-118" vertex="1">
          <mxGeometry y="110" width="520" height="40" as="geometry" />
        </mxCell>
        <mxCell id="9qNWWsAKLF11rJkQg2GO-130" value="" style="shape=partialRectangle;html=1;whiteSpace=wrap;connectable=0;strokeColor=inherit;overflow=hidden;fillColor=none;top=0;left=0;bottom=0;right=0;pointerEvents=1;fontSize=16;fontColor=#3333FF;" parent="9qNWWsAKLF11rJkQg2GO-129" vertex="1">
          <mxGeometry width="124" height="40" as="geometry">
            <mxRectangle width="124" height="40" as="alternateBounds" />
          </mxGeometry>
        </mxCell>
        <mxCell id="9qNWWsAKLF11rJkQg2GO-131" value="" style="shape=partialRectangle;html=1;whiteSpace=wrap;connectable=0;strokeColor=inherit;overflow=hidden;fillColor=none;top=0;left=0;bottom=0;right=0;pointerEvents=1;fontSize=16;fontColor=#3333FF;" parent="9qNWWsAKLF11rJkQg2GO-129" vertex="1">
          <mxGeometry x="124" width="151" height="40" as="geometry">
            <mxRectangle width="151" height="40" as="alternateBounds" />
          </mxGeometry>
        </mxCell>
        <mxCell id="9qNWWsAKLF11rJkQg2GO-132" value="" style="shape=partialRectangle;html=1;whiteSpace=wrap;connectable=0;strokeColor=inherit;overflow=hidden;fillColor=none;top=0;left=0;bottom=0;right=0;pointerEvents=1;fontSize=16;fontColor=#3333FF;" parent="9qNWWsAKLF11rJkQg2GO-129" vertex="1">
          <mxGeometry x="275" width="245" height="40" as="geometry">
            <mxRectangle width="245" height="40" as="alternateBounds" />
          </mxGeometry>
        </mxCell>
        <mxCell id="g_9uNZ-XEryuF7HmEskM-26" style="shape=tableRow;horizontal=0;startSize=0;swimlaneHead=0;swimlaneBody=0;strokeColor=inherit;top=0;left=0;bottom=0;right=0;collapsible=0;dropTarget=0;fillColor=none;points=[[0,0.5],[1,0.5]];portConstraint=eastwest;fontSize=16;" parent="9qNWWsAKLF11rJkQg2GO-118" vertex="1">
          <mxGeometry y="150" width="520" height="40" as="geometry" />
        </mxCell>
        <mxCell id="g_9uNZ-XEryuF7HmEskM-27" style="shape=partialRectangle;html=1;whiteSpace=wrap;connectable=0;strokeColor=inherit;overflow=hidden;fillColor=none;top=0;left=0;bottom=0;right=0;pointerEvents=1;fontSize=16;fontColor=#3333FF;" parent="g_9uNZ-XEryuF7HmEskM-26" vertex="1">
          <mxGeometry width="124" height="40" as="geometry">
            <mxRectangle width="124" height="40" as="alternateBounds" />
          </mxGeometry>
        </mxCell>
        <mxCell id="g_9uNZ-XEryuF7HmEskM-28" style="shape=partialRectangle;html=1;whiteSpace=wrap;connectable=0;strokeColor=inherit;overflow=hidden;fillColor=none;top=0;left=0;bottom=0;right=0;pointerEvents=1;fontSize=16;fontColor=#3333FF;" parent="g_9uNZ-XEryuF7HmEskM-26" vertex="1">
          <mxGeometry x="124" width="151" height="40" as="geometry">
            <mxRectangle width="151" height="40" as="alternateBounds" />
          </mxGeometry>
        </mxCell>
        <mxCell id="g_9uNZ-XEryuF7HmEskM-29" style="shape=partialRectangle;html=1;whiteSpace=wrap;connectable=0;strokeColor=inherit;overflow=hidden;fillColor=none;top=0;left=0;bottom=0;right=0;pointerEvents=1;fontSize=16;fontColor=#3333FF;" parent="g_9uNZ-XEryuF7HmEskM-26" vertex="1">
          <mxGeometry x="275" width="245" height="40" as="geometry">
            <mxRectangle width="245" height="40" as="alternateBounds" />
          </mxGeometry>
        </mxCell>
        <mxCell id="9qNWWsAKLF11rJkQg2GO-144" value="Lista de PARÁMETROS" style="shape=table;startSize=30;container=1;collapsible=0;childLayout=tableLayout;strokeColor=default;fontSize=16;" parent="1" vertex="1">
          <mxGeometry x="80" y="810" width="460" height="270" as="geometry" />
        </mxCell>
        <mxCell id="9qNWWsAKLF11rJkQg2GO-145" value="" style="shape=tableRow;horizontal=0;startSize=0;swimlaneHead=0;swimlaneBody=0;strokeColor=inherit;top=0;left=0;bottom=0;right=0;collapsible=0;dropTarget=0;fillColor=none;points=[[0,0.5],[1,0.5]];portConstraint=eastwest;fontSize=16;" parent="9qNWWsAKLF11rJkQg2GO-144" vertex="1">
          <mxGeometry y="30" width="460" height="40" as="geometry" />
        </mxCell>
        <mxCell id="9qNWWsAKLF11rJkQg2GO-146" value="variable" style="shape=partialRectangle;html=1;whiteSpace=wrap;connectable=0;strokeColor=inherit;overflow=hidden;fillColor=none;top=0;left=0;bottom=0;right=0;pointerEvents=1;fontSize=16;" parent="9qNWWsAKLF11rJkQg2GO-145" vertex="1">
          <mxGeometry width="124" height="40" as="geometry">
            <mxRectangle width="124" height="40" as="alternateBounds" />
          </mxGeometry>
        </mxCell>
        <mxCell id="9qNWWsAKLF11rJkQg2GO-147" value="nombre tipo" style="shape=partialRectangle;html=1;whiteSpace=wrap;connectable=0;strokeColor=inherit;overflow=hidden;fillColor=none;top=0;left=0;bottom=0;right=0;pointerEvents=1;fontSize=16;" parent="9qNWWsAKLF11rJkQg2GO-145" vertex="1">
          <mxGeometry x="124" width="151" height="40" as="geometry">
            <mxRectangle width="151" height="40" as="alternateBounds" />
          </mxGeometry>
        </mxCell>
        <mxCell id="9qNWWsAKLF11rJkQg2GO-148" value="Clase.método()" style="shape=partialRectangle;html=1;whiteSpace=wrap;connectable=0;strokeColor=inherit;overflow=hidden;fillColor=none;top=0;left=0;bottom=0;right=0;pointerEvents=1;fontSize=16;" parent="9qNWWsAKLF11rJkQg2GO-145" vertex="1">
          <mxGeometry x="275" width="185" height="40" as="geometry">
            <mxRectangle width="185" height="40" as="alternateBounds" />
          </mxGeometry>
        </mxCell>
        <mxCell id="9qNWWsAKLF11rJkQg2GO-149" value="" style="shape=tableRow;horizontal=0;startSize=0;swimlaneHead=0;swimlaneBody=0;strokeColor=inherit;top=0;left=0;bottom=0;right=0;collapsible=0;dropTarget=0;fillColor=none;points=[[0,0.5],[1,0.5]];portConstraint=eastwest;fontSize=16;" parent="9qNWWsAKLF11rJkQg2GO-144" vertex="1">
          <mxGeometry y="70" width="460" height="40" as="geometry" />
        </mxCell>
        <mxCell id="9qNWWsAKLF11rJkQg2GO-150" value="var1" style="shape=partialRectangle;html=1;whiteSpace=wrap;connectable=0;strokeColor=inherit;overflow=hidden;fillColor=none;top=0;left=0;bottom=0;right=0;pointerEvents=1;fontSize=16;fontColor=#3333FF;" parent="9qNWWsAKLF11rJkQg2GO-149" vertex="1">
          <mxGeometry width="124" height="40" as="geometry">
            <mxRectangle width="124" height="40" as="alternateBounds" />
          </mxGeometry>
        </mxCell>
        <mxCell id="9qNWWsAKLF11rJkQg2GO-151" value="tipoX" style="shape=partialRectangle;html=1;whiteSpace=wrap;connectable=0;strokeColor=inherit;overflow=hidden;fillColor=none;top=0;left=0;bottom=0;right=0;pointerEvents=1;fontSize=16;fontColor=#3333FF;" parent="9qNWWsAKLF11rJkQg2GO-149" vertex="1">
          <mxGeometry x="124" width="151" height="40" as="geometry">
            <mxRectangle width="151" height="40" as="alternateBounds" />
          </mxGeometry>
        </mxCell>
        <mxCell id="9qNWWsAKLF11rJkQg2GO-152" value="ClaseX.metodoY()" style="shape=partialRectangle;html=1;whiteSpace=wrap;connectable=0;strokeColor=inherit;overflow=hidden;fillColor=none;top=0;left=0;bottom=0;right=0;pointerEvents=1;fontSize=16;fontColor=#3333FF;" parent="9qNWWsAKLF11rJkQg2GO-149" vertex="1">
          <mxGeometry x="275" width="185" height="40" as="geometry">
            <mxRectangle width="185" height="40" as="alternateBounds" />
          </mxGeometry>
        </mxCell>
        <mxCell id="9qNWWsAKLF11rJkQg2GO-153" value="" style="shape=tableRow;horizontal=0;startSize=0;swimlaneHead=0;swimlaneBody=0;strokeColor=inherit;top=0;left=0;bottom=0;right=0;collapsible=0;dropTarget=0;fillColor=none;points=[[0,0.5],[1,0.5]];portConstraint=eastwest;fontSize=16;" parent="9qNWWsAKLF11rJkQg2GO-144" vertex="1">
          <mxGeometry y="110" width="460" height="40" as="geometry" />
        </mxCell>
        <mxCell id="9qNWWsAKLF11rJkQg2GO-154" value="" style="shape=partialRectangle;html=1;whiteSpace=wrap;connectable=0;strokeColor=inherit;overflow=hidden;fillColor=none;top=0;left=0;bottom=0;right=0;pointerEvents=1;fontSize=16;fontColor=#3333FF;" parent="9qNWWsAKLF11rJkQg2GO-153" vertex="1">
          <mxGeometry width="124" height="40" as="geometry">
            <mxRectangle width="124" height="40" as="alternateBounds" />
          </mxGeometry>
        </mxCell>
        <mxCell id="9qNWWsAKLF11rJkQg2GO-155" value="" style="shape=partialRectangle;html=1;whiteSpace=wrap;connectable=0;strokeColor=inherit;overflow=hidden;fillColor=none;top=0;left=0;bottom=0;right=0;pointerEvents=1;fontSize=16;fontColor=#3333FF;" parent="9qNWWsAKLF11rJkQg2GO-153" vertex="1">
          <mxGeometry x="124" width="151" height="40" as="geometry">
            <mxRectangle width="151" height="40" as="alternateBounds" />
          </mxGeometry>
        </mxCell>
        <mxCell id="9qNWWsAKLF11rJkQg2GO-156" value="" style="shape=partialRectangle;html=1;whiteSpace=wrap;connectable=0;strokeColor=inherit;overflow=hidden;fillColor=none;top=0;left=0;bottom=0;right=0;pointerEvents=1;fontSize=16;fontColor=#3333FF;" parent="9qNWWsAKLF11rJkQg2GO-153" vertex="1">
          <mxGeometry x="275" width="185" height="40" as="geometry">
            <mxRectangle width="185" height="40" as="alternateBounds" />
          </mxGeometry>
        </mxCell>
        <mxCell id="9qNWWsAKLF11rJkQg2GO-157" value="" style="shape=tableRow;horizontal=0;startSize=0;swimlaneHead=0;swimlaneBody=0;strokeColor=inherit;top=0;left=0;bottom=0;right=0;collapsible=0;dropTarget=0;fillColor=none;points=[[0,0.5],[1,0.5]];portConstraint=eastwest;fontSize=16;" parent="9qNWWsAKLF11rJkQg2GO-144" vertex="1">
          <mxGeometry y="150" width="460" height="40" as="geometry" />
        </mxCell>
        <mxCell id="9qNWWsAKLF11rJkQg2GO-158" value="" style="shape=partialRectangle;html=1;whiteSpace=wrap;connectable=0;strokeColor=inherit;overflow=hidden;fillColor=none;top=0;left=0;bottom=0;right=0;pointerEvents=1;fontSize=16;fontColor=#3333FF;" parent="9qNWWsAKLF11rJkQg2GO-157" vertex="1">
          <mxGeometry width="124" height="40" as="geometry">
            <mxRectangle width="124" height="40" as="alternateBounds" />
          </mxGeometry>
        </mxCell>
        <mxCell id="9qNWWsAKLF11rJkQg2GO-159" value="" style="shape=partialRectangle;html=1;whiteSpace=wrap;connectable=0;strokeColor=inherit;overflow=hidden;fillColor=none;top=0;left=0;bottom=0;right=0;pointerEvents=1;fontSize=16;fontColor=#3333FF;" parent="9qNWWsAKLF11rJkQg2GO-157" vertex="1">
          <mxGeometry x="124" width="151" height="40" as="geometry">
            <mxRectangle width="151" height="40" as="alternateBounds" />
          </mxGeometry>
        </mxCell>
        <mxCell id="9qNWWsAKLF11rJkQg2GO-160" value="" style="shape=partialRectangle;html=1;whiteSpace=wrap;connectable=0;strokeColor=inherit;overflow=hidden;fillColor=none;top=0;left=0;bottom=0;right=0;pointerEvents=1;fontSize=16;fontColor=#3333FF;" parent="9qNWWsAKLF11rJkQg2GO-157" vertex="1">
          <mxGeometry x="275" width="185" height="40" as="geometry">
            <mxRectangle width="185" height="40" as="alternateBounds" />
          </mxGeometry>
        </mxCell>
        <mxCell id="9qNWWsAKLF11rJkQg2GO-161" value="" style="shape=tableRow;horizontal=0;startSize=0;swimlaneHead=0;swimlaneBody=0;strokeColor=inherit;top=0;left=0;bottom=0;right=0;collapsible=0;dropTarget=0;fillColor=none;points=[[0,0.5],[1,0.5]];portConstraint=eastwest;fontSize=16;" parent="9qNWWsAKLF11rJkQg2GO-144" vertex="1">
          <mxGeometry y="190" width="460" height="40" as="geometry" />
        </mxCell>
        <mxCell id="9qNWWsAKLF11rJkQg2GO-162" value="" style="shape=partialRectangle;html=1;whiteSpace=wrap;connectable=0;strokeColor=inherit;overflow=hidden;fillColor=none;top=0;left=0;bottom=0;right=0;pointerEvents=1;fontSize=16;fontColor=#3333FF;" parent="9qNWWsAKLF11rJkQg2GO-161" vertex="1">
          <mxGeometry width="124" height="40" as="geometry">
            <mxRectangle width="124" height="40" as="alternateBounds" />
          </mxGeometry>
        </mxCell>
        <mxCell id="9qNWWsAKLF11rJkQg2GO-163" value="" style="shape=partialRectangle;html=1;whiteSpace=wrap;connectable=0;strokeColor=inherit;overflow=hidden;fillColor=none;top=0;left=0;bottom=0;right=0;pointerEvents=1;fontSize=16;fontColor=#3333FF;" parent="9qNWWsAKLF11rJkQg2GO-161" vertex="1">
          <mxGeometry x="124" width="151" height="40" as="geometry">
            <mxRectangle width="151" height="40" as="alternateBounds" />
          </mxGeometry>
        </mxCell>
        <mxCell id="9qNWWsAKLF11rJkQg2GO-164" value="" style="shape=partialRectangle;html=1;whiteSpace=wrap;connectable=0;strokeColor=inherit;overflow=hidden;fillColor=none;top=0;left=0;bottom=0;right=0;pointerEvents=1;fontSize=16;fontColor=#3333FF;" parent="9qNWWsAKLF11rJkQg2GO-161" vertex="1">
          <mxGeometry x="275" width="185" height="40" as="geometry">
            <mxRectangle width="185" height="40" as="alternateBounds" />
          </mxGeometry>
        </mxCell>
        <mxCell id="g_9uNZ-XEryuF7HmEskM-19" style="shape=tableRow;horizontal=0;startSize=0;swimlaneHead=0;swimlaneBody=0;strokeColor=inherit;top=0;left=0;bottom=0;right=0;collapsible=0;dropTarget=0;fillColor=none;points=[[0,0.5],[1,0.5]];portConstraint=eastwest;fontSize=16;" parent="9qNWWsAKLF11rJkQg2GO-144" vertex="1">
          <mxGeometry y="230" width="460" height="40" as="geometry" />
        </mxCell>
        <mxCell id="g_9uNZ-XEryuF7HmEskM-20" value="" style="shape=partialRectangle;html=1;whiteSpace=wrap;connectable=0;strokeColor=inherit;overflow=hidden;fillColor=none;top=0;left=0;bottom=0;right=0;pointerEvents=1;fontSize=16;fontColor=#3333FF;" parent="g_9uNZ-XEryuF7HmEskM-19" vertex="1">
          <mxGeometry width="124" height="40" as="geometry">
            <mxRectangle width="124" height="40" as="alternateBounds" />
          </mxGeometry>
        </mxCell>
        <mxCell id="g_9uNZ-XEryuF7HmEskM-21" value="" style="shape=partialRectangle;html=1;whiteSpace=wrap;connectable=0;strokeColor=inherit;overflow=hidden;fillColor=none;top=0;left=0;bottom=0;right=0;pointerEvents=1;fontSize=16;fontColor=#3333FF;" parent="g_9uNZ-XEryuF7HmEskM-19" vertex="1">
          <mxGeometry x="124" width="151" height="40" as="geometry">
            <mxRectangle width="151" height="40" as="alternateBounds" />
          </mxGeometry>
        </mxCell>
        <mxCell id="g_9uNZ-XEryuF7HmEskM-22" value="" style="shape=partialRectangle;html=1;whiteSpace=wrap;connectable=0;strokeColor=inherit;overflow=hidden;fillColor=none;top=0;left=0;bottom=0;right=0;pointerEvents=1;fontSize=16;fontColor=#3333FF;" parent="g_9uNZ-XEryuF7HmEskM-19" vertex="1">
          <mxGeometry x="275" width="185" height="40" as="geometry">
            <mxRectangle width="185" height="40" as="alternateBounds" />
          </mxGeometry>
        </mxCell>
        <mxCell id="g_9uNZ-XEryuF7HmEskM-18" value="" style="group" parent="1" vertex="1" connectable="0">
          <mxGeometry x="77" y="60" width="710" height="212" as="geometry" />
        </mxCell>
        <mxCell id="9qNWWsAKLF11rJkQg2GO-14" value="&lt;p style=&quot;line-height: 150%;&quot;&gt;TIPOS DE VARIABLES DEL PROYECTO MAVEN LIBRARY-L03&lt;/p&gt;" style="text;html=1;strokeColor=none;fillColor=none;align=left;verticalAlign=middle;whiteSpace=wrap;rounded=0;fontSize=15;fontStyle=1" parent="g_9uNZ-XEryuF7HmEskM-18" vertex="1">
          <mxGeometry width="490" height="30" as="geometry" />
        </mxCell>
        <mxCell id="9qNWWsAKLF11rJkQg2GO-165" value="Los datos en azul son ejemplos. Debes cambiarlos.&lt;br style=&quot;font-size: 16px;&quot;&gt;" style="text;html=1;strokeColor=none;fillColor=none;align=left;verticalAlign=middle;whiteSpace=wrap;rounded=0;fontSize=16;" parent="g_9uNZ-XEryuF7HmEskM-18" vertex="1">
          <mxGeometry y="28" width="380" height="50" as="geometry" />
        </mxCell>
        <mxCell id="9qNWWsAKLF11rJkQg2GO-167" value="A continuación selecciona la opción para añadir una nueva fila" style="text;html=1;strokeColor=none;fillColor=none;align=left;verticalAlign=middle;whiteSpace=wrap;rounded=0;fontSize=16;container=1;" parent="g_9uNZ-XEryuF7HmEskM-18" vertex="1">
          <mxGeometry x="513" y="152" width="190" height="60" as="geometry" />
        </mxCell>
        <mxCell id="g_9uNZ-XEryuF7HmEskM-9" value="En la columna &quot;tipo&quot; hay que indicar el nombre del tipo asociado a cada variable&amp;nbsp;" style="text;html=1;strokeColor=none;fillColor=none;align=left;verticalAlign=middle;whiteSpace=wrap;rounded=0;fontSize=16;" parent="g_9uNZ-XEryuF7HmEskM-18" vertex="1">
          <mxGeometry y="67" width="585" height="40" as="geometry" />
        </mxCell>
        <mxCell id="g_9uNZ-XEryuF7HmEskM-11" value="Si hay más de una variable con el mismo tipo escríbelas en la misma celda separadas por comas" style="text;html=1;strokeColor=none;fillColor=none;align=left;verticalAlign=middle;whiteSpace=wrap;rounded=0;fontSize=16;" parent="g_9uNZ-XEryuF7HmEskM-18" vertex="1">
          <mxGeometry y="104" width="710" height="40" as="geometry" />
        </mxCell>
        <mxCell id="g_9uNZ-XEryuF7HmEskM-16" value="Puedes añadir las filas que necesites. &lt;br&gt;Para ello selecciona una celda y accede al menú tabla." style="text;html=1;strokeColor=none;fillColor=none;align=left;verticalAlign=middle;whiteSpace=wrap;rounded=0;fontSize=16;container=1;" parent="g_9uNZ-XEryuF7HmEskM-18" vertex="1">
          <mxGeometry y="136" width="410" height="60" as="geometry" />
        </mxCell>
        <mxCell id="g_9uNZ-XEryuF7HmEskM-17" value="" style="group" parent="g_9uNZ-XEryuF7HmEskM-18" vertex="1" connectable="0">
          <mxGeometry x="395" y="152" width="108.75" height="60" as="geometry" />
        </mxCell>
        <mxCell id="g_9uNZ-XEryuF7HmEskM-14" value="" style="shape=image;verticalLabelPosition=bottom;labelBackgroundColor=default;verticalAlign=top;aspect=fixed;imageAspect=0;image=data:image/png,iVBORw0KGgoAAAANSUhEUgAAAF4AAABgCAYAAACUosWzAAAKqmlDQ1BJQ0MgUHJvZmlsZQAASImVlwdQU1kXgO976Y2WEAEpoTdBOgGkhNBCEaSDqIQkQCghBoKK2FlcwbWgIgI2dEFEwVUpslZEsS0KSrFukEVEWRcLNlT+BwzB3X/+/5//zJx3vnfeueeee+femfMAoChxxeI0WAmAdFGWJNTXkxEdE8vADQICIAEy8qRyeZliVkhIIEBk2v5d3ncDaMLetZjI9e/f/6so8wWZPACgEIQT+Jm8dIRPI/qCJ5ZkAYA6gPj1l2WJJ7gVYZoEKRDh3glOmuLhCU6YZDSYjAkPZSNMAwBP5nIlSQCQGYifkc1LQvKQPRC2EvGFIoTFCLulp2fwET6BsAkSg/jIE/mZCd/lSfpbzgR5Ti43Sc5Ta5kUvJcwU5zGXfF/bsf/lvQ06fQcRoiSkyV+oYhVQfasNzUjQM6ihPnB0yzkT8ZPcrLUL2KaeZns2Gnmc70C5GPT5gdOc6LQhyPPk8UJn2ZBpnfYNEsyQuVzJUrYrGnmSmbmlaZGyP3JAo48f05yeNQ0Zwsj509zZmpYwEwMW+6XSEPl9QtEvp4z8/rI156e+d16hRz52KzkcD/52rkz9QtErJmcmdHy2vgCL++ZmAh5vDjLUz6XOC1EHi9I85X7M7PD5GOzkAM5MzZEvocpXP+QaQZskAHSEJUABghE3rwAyBIsz5pYCDtDvEIiTErOYrCQGyZgcEQ8yzkMGysbWwAm7uvUcXhLn7yHEP3GjG8DEQBX0fj4+NkZX8BnAE7rAkCUzfiMOwFQQM79te08qSR7yjd5lzCACBQBDagDbaAPTIAFsAEOwAV4AG/gD4JBOIgBiwEPJIN0pPJlIBesA/mgEGwDu0Ap2A8OgSPgODgJGsFZcAlcBTfBHdAFHgIZGAAvwQh4D8YgCMJBFIgKqUM6kCFkDtlATMgN8oYCoVAoBoqHkiARJIVyoQ1QIVQElUIHoWroF+gMdAm6DnVA96E+aAh6A32GUTAZpsFasBE8F2bCLDgADocXwUnwUjgHzoO3wCVwBXwMboAvwTfhLlgGv4RHUQBFQtFRuigLFBPFRgWjYlGJKAlqNaoAVYyqQNWimlFtqLsoGWoY9QmNRVPRDLQF2gXth45A89BL0avRm9Gl6CPoBnQr+i66Dz2C/oahYDQx5hhnDAcTjUnCLMPkY4oxlZh6zBVMF2YA8x6LxdKxxlhHrB82BpuCXYndjN2LrcNexHZg+7GjOBxOHWeOc8UF47i4LFw+bg/uGO4CrhM3gPuIJ+F18DZ4H3wsXoRfjy/GH8Wfx3fiB/FjBCWCIcGZEEzgE1YQthIOE5oJtwkDhDGiMtGY6EoMJ6YQ1xFLiLXEK8RHxLckEkmP5ERaQBKS1pJKSCdI10h9pE9kFbIZmU2OI0vJW8hV5Ivk++S3FArFiOJBiaVkUbZQqimXKU8oHxWoCpYKHAW+whqFMoUGhU6FV4oERUNFluJixRzFYsVTircVh5UISkZKbCWu0mqlMqUzSj1Ko8pUZWvlYOV05c3KR5WvKz9XwakYqXir8FXyVA6pXFbpp6Ko+lQ2lUfdQD1MvUIdoGFpxjQOLYVWSDtOa6eNqKqo2qlGqi5XLVM9pyqjo+hGdA49jb6VfpLeTf88S2sWa5Zg1qZZtbM6Z31Qm63moSZQK1CrU+tS+6zOUPdWT1Xfrt6o/lgDrWGmsUBjmcY+jSsaw7Nps11m82YXzD45+4EmrGmmGaq5UvOQ5i3NUS1tLV8tsdYerctaw9p0bQ/tFO2d2ue1h3SoOm46Qp2dOhd0XjBUGSxGGqOE0coY0dXU9dOV6h7Ubdcd0zPWi9Bbr1en91ifqM/UT9Tfqd+iP2KgYxBkkGtQY/DAkGDINEw23G3YZvjByNgoymijUaPRc2M1Y45xjnGN8SMTiom7yVKTCpN7plhTpmmq6V7TO2awmb1ZslmZ2W1z2NzBXGi+17xjDmaO0xzRnIo5PRZkC5ZFtkWNRZ8l3TLQcr1lo+WruQZzY+dun9s295uVvVWa1WGrh9Yq1v7W662brd/YmNnwbMps7tlSbH1s19g22b62M7cT2O2z67Wn2gfZb7Rvsf/q4Oggcah1GHI0cIx3LHfsYdKYIczNzGtOGCdPpzVOZ50+OTs4ZzmfdP7LxcIl1eWoy/N5xvME8w7P63fVc+W6HnSVuTHc4t0OuMncdd257hXuTz30PfgelR6DLFNWCusY65WnlafEs97zA9uZvYp90Qvl5etV4NXureId4V3q/cRHzyfJp8ZnxNfed6XvRT+MX4Dfdr8ejhaHx6nmjPg7+q/ybw0gB4QFlAY8DTQLlAQ2B8FB/kE7gh7NN5wvmt8YDII5wTuCH4cYhywN+XUBdkHIgrIFz0KtQ3ND28KoYUvCjoa9D/cM3xr+MMIkQhrREqkYGRdZHfkhyiuqKEoWPTd6VfTNGI0YYUxTLC42MrYydnSh98JdCwfi7OPy47oXGS9avuj6Yo3FaYvPLVFcwl1yKh4THxV/NP4LN5hbwR1N4CSUJ4zw2LzdvJd8D/5O/pDAVVAkGEx0TSxKfJ7kmrQjaSjZPbk4eVjIFpYKX6f4pexP+ZAanFqVOp4WlVaXjk+PTz8jUhGliloztDOWZ3SIzcX5YtlS56W7lo5IAiSVmVDmosymLBrSGN2Smkh/kPZlu2WXZX9cFrns1HLl5aLlt1aYrdi0YjDHJ+fnleiVvJUtubq563L7VrFWHVwNrU5Y3bJGf03emoG1vmuPrCOuS13323qr9UXr322I2tCcp5W3Nq//B98favIV8iX5PRtdNu7/Ef2j8Mf2Tbab9mz6VsAvuFFoVVhc+GUzb/ONn6x/KvlpfEvilvatDlv3bcNuE23r3u6+/UiRclFOUf+OoB0NOxk7C3a+27Vk1/Viu+L9u4m7pbtlJYElTXsM9mzb86U0ubSrzLOsrlyzfFP5h738vZ37PPbV7tfaX7j/8wHhgd6DvgcbKowqig9hD2UfenY48nDbz8yfqys1Kgsrv1aJqmRHQo+0VjtWVx/VPLq1Bq6R1gwdizt257jX8aZai9qDdfS6whPghPTEi1/if+k+GXCy5RTzVO1pw9Pl9dT6ggaoYUXDSGNyo6wppqnjjP+ZlmaX5vpfLX+tOqt7tuyc6rmt54nn886PX8i5MHpRfHH4UtKl/pYlLQ8vR1++17qgtf1KwJVrV32uXm5jtV245nrt7HXn62duMG803nS42XDL/lb9b/a/1bc7tDfcdrzddMfpTnPHvI7zne6dl+563b16j3PvZtf8ro7uiO7enrgeWS+/9/n9tPuvH2Q/GHu49hHmUcFjpcfFTzSfVPxu+nudzEF2rs+r79bTsKcP+3n9L//I/OPLQN4zyrPiQZ3B6uc2z88O+QzdebHwxcBL8cux4fw/lf8sf2Xy6vRfHn/dGokeGXgteT3+ZvNb9bdV7+zetYyGjD55n/5+7EPBR/WPRz4xP7V9jvo8OLbsC+5LyVfTr83fAr49Gk8fHxdzJdzJVgCFKJyYCMCbKgAoMQBQ7yD9w8KpfnpSoKl/gEkC/4mneu5JcQCgFjETbRH7IgAnEDVai+RGdKIlCvcAsK2tXKd738k+fUKwyB/LAbcJ6lKLFIN/yFQP/13d/7RgIqsd+Kf9FxluBmIEjiezAAAAimVYSWZNTQAqAAAACAAEARoABQAAAAEAAAA+ARsABQAAAAEAAABGASgAAwAAAAEAAgAAh2kABAAAAAEAAABOAAAAAAAAAJAAAAABAAAAkAAAAAEAA5KGAAcAAAASAAAAeKACAAQAAAABAAAAXqADAAQAAAABAAAAYAAAAABBU0NJSQAAAFNjcmVlbnNob3R3sUVKAAAACXBIWXMAABYlAAAWJQFJUiTwAAAB1GlUWHRYTUw6Y29tLmFkb2JlLnhtcAAAAAAAPHg6eG1wbWV0YSB4bWxuczp4PSJhZG9iZTpuczptZXRhLyIgeDp4bXB0az0iWE1QIENvcmUgNi4wLjAiPgogICA8cmRmOlJERiB4bWxuczpyZGY9Imh0dHA6Ly93d3cudzMub3JnLzE5OTkvMDIvMjItcmRmLXN5bnRheC1ucyMiPgogICAgICA8cmRmOkRlc2NyaXB0aW9uIHJkZjphYm91dD0iIgogICAgICAgICAgICB4bWxuczpleGlmPSJodHRwOi8vbnMuYWRvYmUuY29tL2V4aWYvMS4wLyI+CiAgICAgICAgIDxleGlmOlBpeGVsWURpbWVuc2lvbj45NjwvZXhpZjpQaXhlbFlEaW1lbnNpb24+CiAgICAgICAgIDxleGlmOlBpeGVsWERpbWVuc2lvbj45NDwvZXhpZjpQaXhlbFhEaW1lbnNpb24+CiAgICAgICAgIDxleGlmOlVzZXJDb21tZW50PlNjcmVlbnNob3Q8L2V4aWY6VXNlckNvbW1lbnQ+CiAgICAgIDwvcmRmOkRlc2NyaXB0aW9uPgogICA8L3JkZjpSREY+CjwveDp4bXBtZXRhPgo2Lsh/AAAAHGlET1QAAAACAAAAAAAAADAAAAAoAAAAMAAAADAAAAJKKdCuygAAAhZJREFUeAHs2kFugkAUBuBnogtIJCnuHJb1CNUr2BPXK2iPYJfgTkyhkYUk7YzJSyzVFIfAA/xnM62Ueczn73RQB9+6EVrjAgPAN25+Ljj4TL+QeAF7wAugm5KAB7yQgFBZJB7wQgJCZZF4wAsJCJVF4gEvJCBUFokHvJCAUFkkHvBCAkJlkXjACwkIlUXiAS8kIFQWiQe8kIBQWSS+C/BZllEc7yk7ZrVeruM65PsTchyn1jqSg9+V+CgKabPekOnrbEoFNF/MyfR9bXfBf2y3tFq9URhGNJn4fxJpXhH7fXy2qnI8CBQtl6/0PJv11f2+bxkwvAF+mS8oUOoXTBhF9L5Znx+rctwsMYC/oGV489A1mLqPX1xK53+0WmoAX/15B3x1Q6sRAG/FVv0kK3j8cxWCx3YS8FcF8jzXd9dHOunepo2GQ3Jcl4a6r6v1cqlJk4SiXURpklq5jb0xqamisedZnV/mJCt4M3Cb9/EMf4hjOur3lfL8VMZCJ3xErn6f6Mn3AV9KrPBHvNTEGn6nk5/oV0CZ5umET3XSfQ3fyqXGTKLNiWfksslvMul8bb1canhyZZPfZNL52qzgu7aPv5V8iaRXgu/aPv5W8iWS/lDwPFlOPm8zm9g2cu1i/xBLDU+ak883Vk3cKHHtYm8Fbwbpwq6mONk2/Q54oWcD8IAn+u+jQyGjWspaJb5r+/ha5CoO+gMAAP//Ie+OwAAAATNJREFU7dqxboJgGEbhj/HvCCOMegv2FuwV11uoK6MdYYSkadN/YGhDN+MiafAk5LAQNXLIw+tm8fH59RN3Hu+XS5xOr9F1fVRVGSmlq2/mnGMYxr/3/vN509RxPL7Ebr+/uv6WXhRL4Pu+i/PbOebzmkddN3F4PsR83uqxCH5e9DgOkb/zqh7pKUVZVje/qFWjD774IvgH39umc8JDj1d44SEBKOvihYcEoKyLFx4SgLIuXnhIAMq6eOEhASjr4oWHBKCsixceEoCyLl54SADKunjhIQEo6+KFhwSgrIun4Nu2vfufZNA9bjJbCM8812KaJhcP2AsPoM9J4YWHBKCsixceEoCyLl54SADKunjhIQEo6+KFhwSgrIsXHhKAsi5eeEgAyrp44SEBKOvihYcEoOwvhXN4vTzcgvAAAAAASUVORK5CYII=;" parent="g_9uNZ-XEryuF7HmEskM-17" vertex="1">
          <mxGeometry x="50" width="58.75" height="60" as="geometry" />
        </mxCell>
        <mxCell id="g_9uNZ-XEryuF7HmEskM-15" value="" style="endArrow=none;html=1;rounded=0;strokeWidth=2;startArrow=classic;startFill=1;endFill=0;" parent="g_9uNZ-XEryuF7HmEskM-17" edge="1">
          <mxGeometry width="50" height="50" relative="1" as="geometry">
            <mxPoint x="50" y="25" as="sourcePoint" />
            <mxPoint y="25" as="targetPoint" />
          </mxGeometry>
        </mxCell>
      </root>
    </mxGraphModel>
  </diagram>
</mxfile>
